IKResults
version=1
nRows=8
nColumns=40
inDegrees=yes

Units are S.I. units (second, meters, Newtons, ...)
Angles are in degrees.

endheader
time	pelvis_tilt	pelvis_list	pelvis_rotation	pelvis_tx	pelvis_ty	pelvis_tz	hip_flexion_r	hip_adduction_r	hip_rotation_r	knee_angle_r	knee_angle_r_beta	ankle_angle_r	subtalar_angle_r	mtp_angle_r	hip_flexion_l	hip_adduction_l	hip_rotation_l	knee_angle_l	knee_angle_l_beta	ankle_angle_l	subtalar_angle_l	mtp_angle_l	lumbar_extension	lumbar_bending	lumbar_rotation	arm_flex_r	arm_add_r	arm_rot_r	elbow_flex_r	pro_sup_r	wrist_flex_r	wrist_dev_r	arm_flex_l	arm_add_l	arm_rot_l	elbow_flex_l	pro_sup_l	wrist_flex_l	wrist_dev_l
      0.92000000	     17.12527193	      4.43682909	     -4.63501978	      0.13633691	      0.93171713	     -1.00386948	    -24.00342971	     -9.91599928	     -7.36726468	    -41.68915153	     -0.72761296	     -7.41707453	    -12.86924314	      1.39193219	      0.03659132	     -3.26540121	     24.85813617	    -18.53241322	     -0.32345163	      0.17216563	     -2.82146401	     -5.80028341	    -22.90497226	     -7.31196984	      6.23872092	      0.56391694	    -12.53215951	     -4.34334211	     40.29383595	     89.95437384	      0.00000000	      0.00000000	    -12.77153312	      7.06202617	      1.48597815	     15.55102148	     89.95437384	      0.00000000	      0.00000000
      0.93000000	     17.18393695	      4.61548615	     -4.78258492	      0.14724041	      0.93369961	     -1.00604678	    -22.63851147	    -10.62225526	     -7.71170785	    -44.50867426	     -0.77682291	     -9.67742488	    -13.86433309	      2.38113143	     -1.10488882	     -3.86230055	     24.72419436	    -17.81201785	     -0.31087836	      0.38988932	     -2.99331269	     -5.70788881	    -22.89188442	     -7.44437917	      6.04448035	      0.30496269	    -12.41382588	     -3.76389750	     39.15557789	     89.95437384	      0.00000000	      0.00000000	    -12.16677182	      7.14751564	      1.26831888	     15.84987726	     89.95437384	      0.00000000	      0.00000000
      0.94000000	     17.25992823	      4.71891866	     -4.98175602	      0.15788264	      0.93554068	     -1.00826802	    -21.20604094	    -11.28533078	     -7.89566111	    -47.27465458	     -0.82509838	    -11.92372782	    -14.83948938	      3.56744926	     -2.29895229	     -4.37909362	     24.83827005	    -17.02630404	     -0.29716506	      0.61785431	     -3.25009638	     -5.62696678	    -22.91025618	     -7.47258222	      5.90866241	      0.08359580	    -12.36213174	     -3.04734629	     37.99748437	     89.95437384	      0.00000000	      0.00000000	    -11.52946827	      7.20640717	      1.11098137	     16.20840148	     89.95437384	      0.00000000	      0.00000000
      0.95000000	     17.30778653	      4.72727303	     -5.30207960	      0.16812390	      0.93716390	     -1.01003540	    -19.57703728	    -11.79765288	     -7.80849973	    -50.20585390	     -0.87625745	    -12.41950560	    -14.85091452	     17.13738599	     -3.48872047	     -4.81822236	     24.89389561	    -16.14617759	     -0.28180396	      0.92659752	     -3.09294409	     -4.69074489	    -22.93325582	     -7.47133725	      5.85859080	     -0.09349424	    -12.33425916	     -2.21314793	     36.92907094	     89.95437384	      0.00000000	      0.00000000	    -10.83544135	      7.24810276	      1.25790845	     16.60004224	     89.95437384	      0.00000000	      0.00000000
      0.96000000	     17.41397693	      4.63605029	     -5.62304366	      0.17824295	      0.93862618	     -1.01184405	    -18.10115137	    -12.16819343	     -7.58936195	    -52.64340657	     -0.91880077	    -13.75130730	    -15.69610083	     17.30610577	     -4.71104844	     -5.08839624	     25.28021160	    -15.36630613	     -0.26819264	      1.34059660	     -3.83639171	     -4.75446458	    -23.02685850	     -7.34127494	      5.79905506	     -0.26578450	    -12.29991676	     -1.51608637	     35.90621278	     89.95437384	      0.00000000	      0.00000000	    -10.13355254	      7.29637922	      1.30466959	     17.04164041	     89.95437384	      0.00000000	      0.00000000
      0.97000000	     17.41171177	      4.68976733	     -6.06408234	      0.18809077	      0.93960798	     -1.01348112	    -16.39972206	    -12.74416284	     -7.34879744	    -55.13699287	     -0.96232207	    -13.50555408	    -16.70346920	     17.44074509	     -5.69579453	     -5.46218799	     26.03690927	    -14.74230345	     -0.25730173	      1.28870605	     -4.54098544	     -4.77779766	    -23.00499273	     -7.40599325	      5.80809082	     -0.47578866	    -12.35443384	     -0.51322711	     34.99629326	     89.95437384	      0.00000000	      0.00000000	     -9.40308760	      7.34227999	      1.67999975	     17.53191690	     89.95437384	      0.00000000	      0.00000000
      0.98000000	     17.47155918	      4.59553681	     -6.41739297	      0.19782380	      0.94060829	     -1.01497336	    -14.86670766	    -13.03708888	     -7.07725782	    -57.32613158	     -1.00052974	    -12.44565206	    -16.93590023	     17.44189416	     -6.76513571	     -5.65623890	     26.70638343	    -14.12851181	     -0.24658905	      1.45853263	     -5.45347435	     -4.85802841	    -23.07335111	     -7.30958670	      5.73367090	     -0.65570682	    -12.30924012	      0.24352762	     34.05567018	     89.95437384	      0.00000000	      0.00000000	     -8.60878735	      7.38185534	      2.15959462	     17.90446683	     89.95437384	      0.00000000	      0.00000000
      0.99000000	     17.66995822	      4.34414170	     -6.51867519	      0.20741585	      0.94185890	     -1.01655594	    -13.69206613	    -12.96201544	     -6.93024316	    -59.04015393	     -1.03044508	    -11.30028233	    -17.14859223	     17.27434721	     -8.02723196	     -5.70180494	     26.85070557	    -13.46111150	     -0.23494072	      1.77825655	     -6.18082369	     -4.92684490	    -23.35118632	     -6.99225973	      5.50882153	     -0.82710877	    -12.18079207	      0.70637677	     33.12299719	     89.95437384	      0.00000000	      0.00000000	     -7.66630984	      7.47422905	      2.39505844	     18.17672175	     89.95437384	      0.00000000	      0.00000000
